<?xml version="1.0" encoding="utf-8"?>
<svg
	version="1.1"
	xmlns="http://www.w3.org/2000/svg"
	xmlns:xlink="http://www.w3.org/1999/xlink"
	xml:space="preserve"
	x="0px"
	y="0px"
	viewBox="-240 -135 2400 1350"
>
<g style="opacity: 0.25">
<g>
	<g>
		<polygon fill="#e0e0e0" points="47.4,914.88 8.27,982.66 86.54,982.66"/>
	</g>
	<g>
		<polygon fill="none" stroke="#ebebeb" stroke-width="3" stroke-miterlimit="10" points="47.4,1051.04 72.33,1007.87 22.48,1007.87 		"/>
	</g>
	<g>
		<polygon fill="none" stroke="#ebebeb" stroke-width="3" stroke-miterlimit="10" points="180.69,937.19 205.62,894.02 155.77,894.02 		"/>
	</g>
	<g>
		<polygon fill="none" stroke="#ebebeb" stroke-width="3" stroke-miterlimit="10" points="172.03,685.88 190.05,654.68 154.01,654.68 		"/>
	</g>
	<g>
		<polygon fill="none" stroke="#ebebeb" stroke-width="3" stroke-miterlimit="10" points="65.92,679.52 54.18,699.85 77.66,699.85 		"/>
	</g>
	<g>
		<polygon fill="none" stroke="#ebebeb" stroke-width="3" stroke-miterlimit="10" points="183.77,714.54 172.03,734.86 195.5,734.86 		"/>
	</g>
	<g>
		<polygon fill="none" stroke="#ebebeb" stroke-width="3" stroke-miterlimit="10" points="86.54,1012.1 74.8,1032.43 98.28,1032.43 		"/>
	</g>
	<g>
		<polygon fill="#d9d9d9" points="47.4,914.88 125.67,914.9 86.55,847.11 		"/>
	</g>
	<g>
		<polygon fill="#f7f7f7" points="47.4,914.88 -30.86,914.9 8.26,847.11 		"/>
		<polygon fill="#ededed" points="47.4,914.88 125.67,914.86 86.55,982.65 		"/>
	</g>
	<g>
		<polygon fill="#ededed" points="47.4,780.05 86.54,712.27 8.27,712.27 		"/>
		<polygon fill="#ededed" points="47.4,780.05 8.27,847.83 86.54,847.83 		"/>
	</g>
	<g>
		<polygon fill="#d9d9d9" points="47.4,780.05 125.67,780.07 86.55,712.28 		"/>
		<polygon fill="#d9d9d9" points="47.4,780.05 -30.86,780.03 8.26,847.82 		"/>
	</g>
	<g>
		<polygon fill="#ededed" points="47.4,780.05 125.67,780.03 86.55,847.82 		"/>
	</g>
	<g>
		<polygon fill="#ededed" points="-70.06,847.83 -30.93,780.05 -109.19,780.05 		"/>
		<polygon fill="#e0e0e0" points="-70.06,847.83 -109.19,915.61 -30.93,915.61 		"/>
	</g>
	<g>
		<polygon fill="#d9d9d9" points="-70.06,847.83 8.21,847.85 -30.91,780.06 		"/>
		<polygon fill="#ededed" points="-70.06,847.83 -148.32,847.81 -109.21,915.6 		"/>
	</g>
	<g>
		<polygon fill="#f7f7f7" points="-70.06,847.83 -148.32,847.85 -109.21,780.06 		"/>
		<polygon fill="#ededed" points="-70.06,847.83 8.21,847.81 -30.91,915.6 		"/>
	</g>
	<g>
		<polygon fill="#ededed" points="164.8,712.27 86.54,712.25 125.65,780.04 		"/>
	</g>
	<g>
		<polygon fill="#f7f7f7" points="164.8,712.27 86.54,712.29 125.65,644.5 		"/>
	</g>
	<g>
		<polygon fill="#f7f7f7" points="178.27,991.12 100.01,991.14 139.13,923.35 		"/>
	</g>
</g>
<g>
	<polygon fill="none" stroke="#ebebeb" stroke-width="3" stroke-miterlimit="10" points="519.05,366.03 506.15,317.87 470.9,353.12 	"/>
</g>
<g>
	<polygon fill="none" stroke="#ebebeb" stroke-width="3" stroke-miterlimit="10" points="1841.52,962.03 1889.68,949.12 1854.42,913.87 	"/>
</g>
<g>
	<g>
		<polygon fill="#ededed" points="1873.23,117.22 1834.1,185 1912.36,185 		"/>
		<polygon fill="#e0e0e0" points="1873.23,117.22 1912.36,49.44 1834.1,49.44 		"/>
	</g>
	<g>
		<polygon fill="none" stroke="#ebebeb" stroke-width="3" stroke-miterlimit="10" points="1873.23,-18.94 1848.3,24.23 1898.15,24.23 		"/>
	</g>
	<g>
		<polygon fill="none" stroke="#ebebeb" stroke-width="3" stroke-miterlimit="10" points="1739.94,94.91 1715.01,138.08 1764.86,138.08 		"/>
	</g>
	<g>
		<polygon fill="none" stroke="#ebebeb" stroke-width="3" stroke-miterlimit="10" points="1748.6,346.22 1730.59,377.42 1766.62,377.42 		"/>
	</g>
	<g>
		<polygon fill="none" stroke="#ebebeb" stroke-width="3" stroke-miterlimit="10" points="1854.71,352.58 1866.45,332.25 1842.97,332.25 		"/>
	</g>
	<g>
		<polygon fill="none" stroke="#ebebeb" stroke-width="3" stroke-miterlimit="10" points="1736.86,317.57 1748.6,297.24 1725.13,297.24 		"/>
	</g>
	<g>
		<polygon fill="none" stroke="#ebebeb" stroke-width="3" stroke-miterlimit="10" points="1834.09,20 1845.83,-0.32 1822.35,-0.32 		"/>
	</g>
	<g>
		<polygon fill="#d9d9d9" points="1873.23,117.22 1794.96,117.2 1834.08,184.99 		"/>
	</g>
	<g>
		<polygon fill="#f7f7f7" points="1873.23,117.22 1951.49,117.2 1912.38,184.99 		"/>
		<polygon fill="#ededed" points="1873.23,117.22 1794.96,117.24 1834.08,49.45 		"/>
	</g>
	<g>
		<polygon fill="#ededed" points="1873.23,252.05 1834.1,319.83 1912.36,319.83 		"/>
	</g>
	<g>
		<polygon fill="#d9d9d9" points="1873.23,252.05 1794.96,252.03 1834.08,319.82 		"/>
		<polygon fill="#d9d9d9" points="1873.23,252.05 1951.49,252.07 1912.38,184.28 		"/>
	</g>
	<g>
		<polygon fill="#ededed" points="1873.23,252.05 1794.96,252.07 1834.08,184.28 		"/>
	</g>
	<g>
		<polygon fill="#ededed" points="1990.69,184.27 1951.56,252.05 2029.82,252.05 		"/>
		<polygon fill="#e0e0e0" points="1990.69,184.27 2029.82,116.49 1951.56,116.49 		"/>
	</g>
	<g>
		<polygon fill="#d9d9d9" points="1990.69,184.27 1912.42,184.25 1951.54,252.04 		"/>
		<polygon fill="#ededed" points="1990.69,184.27 2068.95,184.29 2029.84,116.5 		"/>
	</g>
	<g>
		<polygon fill="#f7f7f7" points="1990.69,184.27 2068.95,184.25 2029.84,252.04 		"/>
		<polygon fill="#ededed" points="1990.69,184.27 1912.42,184.29 1951.54,116.5 		"/>
	</g>
	<g>
		<polygon fill="#ededed" points="1754.83,319.83 1833.09,319.85 1793.97,252.06 		"/>
	</g>
	<g>
		<polygon fill="#f7f7f7" points="1754.83,319.83 1833.09,319.81 1793.97,387.6 		"/>
	</g>
	<g>
		<polygon fill="#f7f7f7" points="1742.36,40.98 1820.62,40.96 1781.51,108.75 		"/>
	</g>
</g>
<g>
	<polygon fill="none" stroke="#ebebeb" stroke-width="3" stroke-miterlimit="10" points="323.29,1028.23 335.03,1007.9 311.56,1007.9 	"/>
</g>
<g>
	<polygon fill="none" stroke="#ebebeb" stroke-width="3" stroke-miterlimit="10" points="374.81,965.02 363.07,985.35 386.54,985.35 	"/>
</g>
<g>
	<polygon fill="none" stroke="#ebebeb" stroke-width="3" stroke-miterlimit="10" points="1529.81,635.02 1518.07,655.35 1541.54,655.35 	"/>
</g>
</g>
</svg>
