<svg  data-name="Ebene 1" xmlns="http://www.w3.org/2000/svg" viewBox="0 0 348.13 96.96"><title>XAIN Logo</title><path d="M215.94,133.33h-.07l-22.3-4.3a.31.31,0,0,1-.23-.15.34.34,0,0,1,0-.26l4.84-19.76a.34.34,0,0,1,.29-.26.33.33,0,0,1,.34.19c6.22,12.31,17.3,23.85,17.42,24a.35.35,0,0,1-.25.58Zm-21.89-4.9,20.92,4c-2.52-2.72-11-12.27-16.39-22.54Z" transform="translate(-124.09 -99.38)" style="fill:#4a4a4a"/><path d="M124.45,133.34a.35.35,0,0,1-.3-.18.37.37,0,0,1,.07-.42c10.22-9.46,17.33-23.8,17.4-24a.34.34,0,0,1,.63,0L148,127.41a.32.32,0,0,1,0,.27.34.34,0,0,1-.22.17l-23.23,5.48Zm17.4-23.49c-1.57,3-7.76,14.28-16.24,22.52l21.64-5.1Z" transform="translate(-124.09 -99.38)" style="fill:#e0e0e0"/><path d="M124.45,163.06a.32.32,0,0,1-.14,0,.34.34,0,0,1-.19-.37c2.44-13,0-29.45,0-29.61a.35.35,0,0,1,.55-.33L140,144.22a.31.31,0,0,1,.14.23.34.34,0,0,1-.08.26l-15.37,18.23A.36.36,0,0,1,124.45,163.06Zm.45-29.3c.44,3.37,1.93,16.57.11,27.77l14.32-17Z" transform="translate(-124.09 -99.38)" style="fill:#a3a3a3"/><path d="M178.21,118.84l-.12,0a.32.32,0,0,1-.19-.19l-8-18.74a.34.34,0,0,1,.08-.38.33.33,0,0,1,.38-.06c12.21,5.81,28,9.12,28.2,9.16a.34.34,0,0,1,.27.29.33.33,0,0,1-.2.35l-20.25,9.56Zm-7.35-18.39L178.39,118l19-9C193.84,108.26,181.24,105.23,170.86,100.45Z" transform="translate(-124.09 -99.38)" style="fill:#979797"/><path d="M160,119.39a.33.33,0,0,1-.17,0l-18-10.11a.34.34,0,0,1,.11-.63c11.71-1.9,28-9.09,28.19-9.17a.37.37,0,0,1,.39.08.35.35,0,0,1,.05.4l-10.25,19.29a.37.37,0,0,1-.2.17Zm-17-10.27,16.88,9.46,9.63-18.12C166,102,153,107.28,142.93,109.12Z" transform="translate(-124.09 -99.38)" style="fill:#e0e0e0"/><path d="M179.28,154.57a.31.31,0,0,1-.19-.06.32.32,0,0,1-.15-.28l.19-17.4a.35.35,0,0,1,.15-.28.38.38,0,0,1,.33,0l21.09,9.1a.34.34,0,0,1,.21.32.35.35,0,0,1-.22.31l-21.28,8.3A.3.3,0,0,1,179.28,154.57Zm.53-17.21-.18,16.37,20-7.81Z" transform="translate(-124.09 -99.38)" style="fill:#5b5b5b"/><path d="M179.47,137.18a.32.32,0,0,1-.16,0,.36.36,0,0,1-.18-.28l-1.26-18.34a.35.35,0,0,1,.17-.32.36.36,0,0,1,.36,0l15.42,10.2a.33.33,0,0,1,.15.3.32.32,0,0,1-.17.28l-14.16,8.14A.34.34,0,0,1,179.47,137.18Zm-.87-18,1.17,17.11L193,128.68Z" transform="translate(-124.09 -99.38)" style="fill:#8c8c8c"/><path d="M141.93,187.11a.34.34,0,0,1-.31-.19c-5.28-11.08-17.29-23.84-17.41-24a.34.34,0,0,1-.06-.39.33.33,0,0,1,.34-.19l20.77,2.44a.36.36,0,0,1,.24.13.34.34,0,0,1,.06.26l-3.29,21.61a.35.35,0,0,1-.29.29Zm-16.6-23.94c2.48,2.71,11.64,13,16.42,22.47l3.08-20.18Z" transform="translate(-124.09 -99.38)" style="fill:#585858"/><path d="M196.86,163.22a.42.42,0,0,1-.16,0l-17.57-8.64a.34.34,0,0,1-.19-.32.33.33,0,0,1,.22-.31l21.28-8.3a.37.37,0,0,1,.35.06.35.35,0,0,1,.11.34L197.19,163a.32.32,0,0,1-.19.23A.33.33,0,0,1,196.86,163.22Zm-16.73-8.95,16.48,8.1,3.48-15.89Z" transform="translate(-124.09 -99.38)" style="fill:#282828"/><path d="M170.2,196.3a.32.32,0,0,1-.25-.12.35.35,0,0,1,0-.4l11.27-19.62a.36.36,0,0,1,.22-.16.3.3,0,0,1,.26,0l17,10.43a.37.37,0,0,1,.16.36.33.33,0,0,1-.27.27c-13.57,2.58-28,9.1-28.2,9.17A.32.32,0,0,1,170.2,196.3Zm11.39-19.49L171,195.22c3.37-1.45,15.16-6.33,26.53-8.62Z" transform="translate(-124.09 -99.38)" style="fill:#161616"/><path d="M215.94,163.06a.34.34,0,0,1-.25-.11l-15.38-16.79a.37.37,0,0,1-.09-.25.37.37,0,0,1,.12-.24l15.38-12.94a.34.34,0,0,1,.37,0,.34.34,0,0,1,.19.32c-.66,15,0,29.55,0,29.7a.32.32,0,0,1-.21.33A.28.28,0,0,1,215.94,163.06ZM201.06,146l14.5,15.83c-.13-3.39-.51-15.48,0-28Z" transform="translate(-124.09 -99.38)" style="fill:#161616"/><path d="M198.47,187.11h-.08a.35.35,0,0,1-.26-.31l-1.62-23.89a.39.39,0,0,1,.09-.26.36.36,0,0,1,.25-.11l19.09-.16a.36.36,0,0,1,.31.2.34.34,0,0,1-.05.37,203.44,203.44,0,0,0-17.43,24A.35.35,0,0,1,198.47,187.11Zm-1.25-23.9,1.52,22.47a208.05,208.05,0,0,1,16.46-22.62Z" transform="translate(-124.09 -99.38)" style="fill:#0c0c0c"/><path d="M170.2,196.3a.35.35,0,0,1-.14,0,140.67,140.67,0,0,0-28.19-9.16.35.35,0,0,1-.28-.29.34.34,0,0,1,.19-.36l19.3-9.69a.34.34,0,0,1,.26,0,.32.32,0,0,1,.2.18l9,18.88a.33.33,0,0,1-.06.38A.36.36,0,0,1,170.2,196.3ZM143,186.63a144.41,144.41,0,0,1,26.54,8.64l-8.43-17.73Z" transform="translate(-124.09 -99.38)" style="fill:#373737"/><path d="M170.2,196.3h0a.36.36,0,0,1-.3-.2l-9-18.88a.33.33,0,0,1,0-.32.35.35,0,0,1,.28-.17l20.24-.74a.33.33,0,0,1,.3.16.34.34,0,0,1,0,.35L170.5,196.12A.35.35,0,0,1,170.2,196.3Zm-8.44-18.9,8.47,17.82,10.64-18.53Z" transform="translate(-124.09 -99.38)" style="fill:#303030"/><path d="M141.93,187.11a.36.36,0,0,1-.2-.06.34.34,0,0,1-.14-.33l3.29-21.61a.36.36,0,0,1,.21-.27.37.37,0,0,1,.34,0l16,11.92a.35.35,0,0,1,.13.3.35.35,0,0,1-.18.28l-19.31,9.7Zm3.55-21.34-3.11,20.4L160.58,177Z" transform="translate(-124.09 -99.38)" style="fill:#464646"/><path d="M139.83,144.83a.33.33,0,0,1-.23-.09.34.34,0,0,1-.08-.39l7.85-17a.34.34,0,0,1,.45-.17l12.12,5.48a.36.36,0,0,1,.2.3.36.36,0,0,1-.17.31l-20,11.5A.33.33,0,0,1,139.83,144.83Zm8-16.86-7.26,15.69L159.05,133Z" transform="translate(-124.09 -99.38)" style="fill:#e1e1e1"/><path d="M179.47,137.18h-.06l-19.68-3.84a.35.35,0,0,1-.15-.61L178,118.23a.34.34,0,0,1,.35,0,.36.36,0,0,1,.2.29l1.26,18.34a.33.33,0,0,1-.11.28A.35.35,0,0,1,179.47,137.18Zm-18.88-4.38,18.51,3.62-1.19-17.25Z" transform="translate(-124.09 -99.38)" style="fill:#b2b2b2"/><path d="M160,119.39a.34.34,0,0,1-.29-.16.32.32,0,0,1,0-.34L169.89,99.6a.32.32,0,0,1,.32-.18.33.33,0,0,1,.3.2l8,18.74a.36.36,0,0,1,0,.32.32.32,0,0,1-.28.16l-18.26.55Zm10.21-18.84-9.63,18.14,17.17-.52Z" transform="translate(-124.09 -99.38)" style="fill:#b6b6b6"/><path d="M147.68,127.86l-.11,0a.35.35,0,0,1-.21-.22l-5.76-18.57a.34.34,0,0,1,.11-.37.33.33,0,0,1,.38,0l18,10.1a.34.34,0,0,1,.17.29.32.32,0,0,1-.15.29l-12.26,8.47A.36.36,0,0,1,147.68,127.86Zm-5.17-18.2L147.87,127l11.43-7.89Z" transform="translate(-124.09 -99.38)" style="fill:#fff"/><path d="M139.83,144.83a.39.39,0,0,1-.21-.06l-15.37-11.5a.33.33,0,0,1-.13-.34.33.33,0,0,1,.25-.27l23.23-5.48a.35.35,0,0,1,.35.12.34.34,0,0,1,0,.36l-7.85,17a.33.33,0,0,1-.23.18Zm-14.59-11.67L139.7,144l7.38-16Z" transform="translate(-124.09 -99.38)" style="fill:#d4d4d4"/><path d="M179.28,154.57h-.06l-26.56-4.71a.36.36,0,0,1-.24-.18.35.35,0,0,1,0-.3l7.07-16.52a.34.34,0,0,1,.26-.2.36.36,0,0,1,.31.1L179.53,154a.35.35,0,0,1,.05.4A.34.34,0,0,1,179.28,154.57Zm-26.07-5.31,25.14,4.46-18.45-20.1Z" transform="translate(-124.09 -99.38)" style="fill:#acacac"/><path d="M198.47,187.11a.41.41,0,0,1-.18-.05l-17-10.44a.35.35,0,0,1-.16-.26.33.33,0,0,1,.12-.29l15.38-13.45a.34.34,0,0,1,.57.23l1.61,23.89a.34.34,0,0,1-.16.32A.37.37,0,0,1,198.47,187.11Zm-16.42-10.83,16,9.85-1.53-22.54Z" transform="translate(-124.09 -99.38)" style="fill:#282828"/><path d="M196.86,163.22a.35.35,0,0,1-.34-.42l3.71-16.94a.35.35,0,0,1,.25-.26.36.36,0,0,1,.34.1l15.37,16.78a.34.34,0,0,1,.07.37.35.35,0,0,1-.32.21l-19.08.16Zm3.9-16.57-3.48,15.88,17.89-.15Z" transform="translate(-124.09 -99.38)" style="fill:#333"/><path d="M200.56,146.28h-.08a.37.37,0,0,1-.23-.21l-6.94-17.23a.37.37,0,0,1,.06-.35.33.33,0,0,1,.32-.12L216,132.65a.36.36,0,0,1,.27.25.35.35,0,0,1-.11.35l-15.38,12.94A.31.31,0,0,1,200.56,146.28Zm-6.38-17.13,6.53,16.22,14.46-12.18Z" transform="translate(-124.09 -99.38)" style="fill:#373737"/><path d="M193.63,129a.33.33,0,0,1-.19-.06L178,118.78a.34.34,0,0,1-.15-.31.33.33,0,0,1,.2-.28l20.25-9.56a.35.35,0,0,1,.48.39L194,128.78a.32.32,0,0,1-.21.24Zm-14.72-10.49,14.5,9.59L198,109.56Z" transform="translate(-124.09 -99.38)" style="fill:#707070"/><path d="M159.8,133.34a.32.32,0,0,1-.14,0l-12.12-5.48a.35.35,0,0,1-.2-.28.36.36,0,0,1,.15-.32l12.27-8.46a.34.34,0,0,1,.35,0,.35.35,0,0,1,.18.31L160.14,133a.33.33,0,0,1-.16.28A.32.32,0,0,1,159.8,133.34Zm-11.42-5.89,11.08,5,.14-12.76Z" transform="translate(-124.09 -99.38)" style="fill:#efefef"/><path d="M145.22,165.5a.36.36,0,0,1-.29-.16.35.35,0,0,1,0-.33l7.5-15.64a.34.34,0,0,1,.27-.19.36.36,0,0,1,.31.12l12.68,15.4a.34.34,0,0,1,0,.36.33.33,0,0,1-.3.2l-20.18.24Zm7.58-15.35-7,14.66,18.91-.23Z" transform="translate(-124.09 -99.38)" style="fill:#909090"/><path d="M152.72,149.86l-.12,0-12.89-5a.33.33,0,0,1-.22-.29.35.35,0,0,1,.17-.33l20-11.49a.32.32,0,0,1,.39,0,.34.34,0,0,1,.09.39L153,149.65A.36.36,0,0,1,152.72,149.86Zm-12.1-5.43,11.92,4.65,6.54-15.28Z" transform="translate(-124.09 -99.38)" style="fill:#c4c4c4"/><path d="M145.22,165.5h0a.35.35,0,0,1-.3-.25l-5.39-20.67a.34.34,0,0,1,.45-.41l12.9,5a.44.44,0,0,1,.19.19.39.39,0,0,1,0,.28l-7.5,15.64A.34.34,0,0,1,145.22,165.5Zm-4.89-20.45,5,19.12,6.93-14.47Z" transform="translate(-124.09 -99.38)" style="fill:#a3a3a3"/><path d="M145.22,165.5h0l-20.77-2.44a.33.33,0,0,1-.27-.21.34.34,0,0,1,0-.35l15.38-18.23a.32.32,0,0,1,.33-.11.33.33,0,0,1,.26.25l5.39,20.66a.32.32,0,0,1-.07.31A.32.32,0,0,1,145.22,165.5Zm-20.09-3,19.64,2.3-5.1-19.54Z" transform="translate(-124.09 -99.38)" style="fill:#909090"/><path d="M161.23,177.42a.37.37,0,0,1-.2-.07l-16-11.92a.34.34,0,0,1,.2-.61l20.18-.25a.37.37,0,0,1,.28.15.34.34,0,0,1,0,.31l-4.17,12.15a.34.34,0,0,1-.23.22Zm-15-11.93,14.82,11,3.86-11.26Z" transform="translate(-124.09 -99.38)" style="fill:#5e5e5e"/><path d="M165.4,165.26a.32.32,0,0,1-.26-.13l-12.68-15.39a.33.33,0,0,1,0-.39.34.34,0,0,1,.35-.17l26.56,4.71a.36.36,0,0,1,.27.26.32.32,0,0,1-.12.35l-13.88,10.69A.31.31,0,0,1,165.4,165.26ZM153.58,150l11.88,14.42,13-10Z" transform="translate(-124.09 -99.38)" style="fill:#888"/><path d="M181.47,176.67l-.13,0a.36.36,0,0,1-.21-.29l-2.19-22.1a.33.33,0,0,1,.15-.31.35.35,0,0,1,.34,0L197,162.57a.33.33,0,0,1,.18.26.31.31,0,0,1-.11.3L181.7,176.59A.4.4,0,0,1,181.47,176.67Zm-1.79-21.86,2.07,20.82L196.24,163Z" transform="translate(-124.09 -99.38)" style="fill:#3f3f3f"/><path d="M181.47,176.67a.36.36,0,0,1-.2-.06L165.2,165.2a.38.38,0,0,1-.14-.28.34.34,0,0,1,.13-.27L179.07,154a.34.34,0,0,1,.35,0,.33.33,0,0,1,.2.28l2.19,22.1a.35.35,0,0,1-.17.33A.33.33,0,0,1,181.47,176.67ZM166,164.91l15.08,10.71L179,154.88Z" transform="translate(-124.09 -99.38)" style="fill:#515151"/><path d="M161.23,177.42a.35.35,0,0,1-.27-.14.33.33,0,0,1-.05-.32l4.17-12.15a.34.34,0,0,1,.52-.17l16.07,11.41a.35.35,0,0,1,.13.38.33.33,0,0,1-.32.24l-20.24.75Zm4.35-12-3.86,11.25,18.73-.69Z" transform="translate(-124.09 -99.38)" style="fill:#3a3a3a"/><path d="M179.28,154.57a.34.34,0,0,1-.25-.11l-19.49-21.24a.33.33,0,0,1,0-.39.34.34,0,0,1,.36-.17l19.68,3.84a.33.33,0,0,1,.27.34l-.19,17.39a.34.34,0,0,1-.22.32A.25.25,0,0,1,179.28,154.57Zm-18.53-21L179,153.36l.18-16.24Z" transform="translate(-124.09 -99.38)" style="fill:#9f9f9f"/><path d="M159.8,133.34a.42.42,0,0,1-.16,0,.36.36,0,0,1-.19-.31l.16-13.94a.34.34,0,0,1,.33-.34l18.26-.56a.33.33,0,0,1,.33.23.35.35,0,0,1-.11.39L160,133.26A.34.34,0,0,1,159.8,133.34Zm.49-14-.14,12.9,17-13.41Z" transform="translate(-124.09 -99.38)" style="fill:#cdcdcd"/><path d="M200.56,146.28a.31.31,0,0,1-.13,0l-21.09-9.1a.34.34,0,0,1,0-.61l14.16-8.14a.35.35,0,0,1,.28,0,.38.38,0,0,1,.21.2l6.93,17.24a.34.34,0,0,1-.08.37A.35.35,0,0,1,200.56,146.28Zm-20.33-9.49,19.71,8.5-6.48-16.1Z" transform="translate(-124.09 -99.38)" style="fill:#7a7a7a"/><path d="M216.3,132.87l-22.48-4.32,4.87-19.92C205.06,121.24,216.3,132.87,216.3,132.87Z" transform="translate(-124.09 -99.38)" style="fill:#4a4a4a"/><path d="M147.51,127.35l-23.42,5.53c10.47-9.7,17.61-24.24,17.61-24.24Z" transform="translate(-124.09 -99.38)" style="fill:#e0e0e0"/><path d="M139.59,144.47l-15.5,18.37c2.5-13.31,0-30,0-30Z" transform="translate(-124.09 -99.38)" style="fill:#a3a3a3"/><path d="M198.69,108.63l-20.41,9.63L170.2,99.38C182.68,105.32,198.69,108.63,198.69,108.63Z" transform="translate(-124.09 -99.38)" style="fill:#979797"/><path d="M170.2,99.38l-10.33,19.44L141.7,108.64C153.69,106.69,170.2,99.38,170.2,99.38Z" transform="translate(-124.09 -99.38)" style="fill:#e0e0e0"/><polygon points="76.71 46.54 55.26 54.9 55.45 37.37 76.71 46.54" style="fill:#686868"/><polygon points="69.72 29.17 55.45 37.37 54.19 18.89 69.72 29.17" style="fill:#8c8c8c"/><path d="M141.71,187.08c-5.41-11.35-17.62-24.24-17.62-24.24L145,165.3Z" transform="translate(-124.09 -99.38)" style="fill:#585858"/><polygon points="76.71 46.54 72.97 63.62 55.26 54.9 76.71 46.54" style="fill:#282828"/><path d="M198.7,187.07c-13.87,2.64-28.5,9.26-28.5,9.26l11.36-19.78Z" transform="translate(-124.09 -99.38)" style="fill:#161616"/><path d="M216.3,132.87c-.67,15.3,0,30,0,30l-15.5-16.91Z" transform="translate(-124.09 -99.38)" style="fill:#161616"/><path d="M216.3,162.83a203.74,203.74,0,0,0-17.6,24.24L197.07,163Z" transform="translate(-124.09 -99.38)" style="fill:#0f0f0f"/><path d="M170.2,196.33a141.22,141.22,0,0,0-28.49-9.25l19.45-9.78Z" transform="translate(-124.09 -99.38)" style="fill:#373737"/><polygon points="57.47 77.18 46.11 96.96 37.07 77.93 57.47 77.18" style="fill:#303030"/><polygon points="37.07 77.93 17.61 87.7 20.93 65.92 37.07 77.93" style="fill:#464646"/><polygon points="35.62 33.5 15.5 45.09 23.41 27.98 35.62 33.5" style="fill:#e1e1e1"/><polygon points="54.19 18.89 55.45 37.37 35.62 33.5 54.19 18.89" style="fill:#b2b2b2"/><polygon points="54.19 18.89 35.78 19.45 46.1 0 54.19 18.89" style="fill:#b6b6b6"/><polygon points="35.78 19.45 23.41 27.98 17.61 9.26 35.78 19.45" style="fill:#fff"/><polygon points="23.41 27.98 15.5 45.09 0 33.5 23.41 27.98" style="fill:#d4d4d4"/><polygon points="55.26 54.9 28.49 50.16 35.62 33.5 55.26 54.9" style="fill:#acacac"/><polygon points="72.97 63.62 74.61 87.7 57.47 77.18 72.97 63.62" style="fill:#282828"/><polygon points="92.21 63.45 72.97 63.62 76.71 46.54 92.21 63.45" style="fill:#333"/><polygon points="92.21 33.49 76.71 46.54 69.72 29.17 92.21 33.49" style="fill:#373737"/><polygon points="69.72 29.17 54.19 18.89 74.6 9.26 69.72 29.17" style="fill:#707070"/><polygon points="35.78 19.45 35.62 33.5 23.41 27.98 35.78 19.45" style="fill:#efefef"/><polygon points="41.27 65.67 20.93 65.92 28.49 50.16 41.27 65.67" style="fill:#909090"/><polygon points="35.62 33.5 28.49 50.16 15.5 45.09 35.62 33.5" style="fill:#c4c4c4"/><polygon points="28.49 50.16 20.93 65.92 15.5 45.09 28.49 50.16" style="fill:#a3a3a3"/><polygon points="20.93 65.92 0 63.46 15.5 45.09 20.93 65.92" style="fill:#909090"/><polygon points="41.27 65.67 37.07 77.93 20.93 65.92 41.27 65.67" style="fill:#5e5e5e"/><polygon points="55.26 54.9 41.27 65.67 28.49 50.16 55.26 54.9" style="fill:#888"/><polygon points="72.97 63.62 57.47 77.18 55.26 54.9 72.97 63.62" style="fill:#3f3f3f"/><polygon points="57.47 77.18 41.27 65.67 55.26 54.9 57.47 77.18" style="fill:#515151"/><polygon points="57.47 77.18 37.07 77.93 41.27 65.67 57.47 77.18" style="fill:#3a3a3a"/><polygon points="55.26 54.9 35.62 33.5 55.45 37.37 55.26 54.9" style="fill:#9f9f9f"/><polygon points="54.19 18.89 35.62 33.5 35.78 19.45 54.19 18.89" style="fill:#cdcdcd"/><polygon points="76.71 46.54 55.45 37.37 69.72 29.17 76.71 46.54" style="fill:#7a7a7a"/><polygon points="110.42 77.92 115.69 77.92 134.12 52.11 152.54 77.92 158.06 77.92 138.61 50.77 129.84 50.77 110.42 77.92" style="fill:#010101"/><polygon points="156.43 21.11 151.16 21.11 134.36 45.05 117.4 21.11 112.04 21.11 129.69 46.07 138.66 46.07 156.43 21.11" style="fill:#010101"/><polygon points="196.69 25.57 204.04 46.06 208.83 46.06 199.78 21.11 193.93 21.11 184.88 46.06 189.4 46.06 196.69 25.57" style="fill:#010101"/><polygon points="215.44 77.92 220.39 77.91 210.54 50.77 205.72 50.77 215.44 77.92" style="fill:#010101"/><polygon points="187.72 50.77 183.17 50.77 173.32 77.92 178.19 77.92 187.72 50.77" style="fill:#010101"/><rect x="245.21" y="50.77" width="4.71" height="27.15" style="fill:#010101"/><rect x="245.21" y="21.11" width="4.71" height="24.95" style="fill:#010101"/><polygon points="282.21 27.92 294.87 46.06 300.13 46.06 282.7 21.11 277.83 21.11 277.83 46.06 282.27 46.06 282.21 27.92" style="fill:#010101"/><polygon points="317.51 70.93 303.42 50.76 298.16 50.76 317.11 77.91 321.98 77.91 321.98 50.76 317.48 50.76 317.51 70.93" style="fill:#010101"/><polygon points="277.83 77.91 282.38 77.91 282.29 50.76 277.83 50.77 277.83 77.91" style="fill:#010101"/><polygon points="321.97 21.1 317.43 21.1 317.47 46.05 321.98 46.05 321.97 21.1" style="fill:#010101"/><path d="M472.22,175a4,4,0,1,1-4-4A4.08,4.08,0,0,1,472.22,175Z" transform="translate(-124.09 -99.38)" style="fill:#010101"/></svg>